<svg xmlns="http://www.w3.org/2000/svg" fill="#ffffff" width="1706.667" height="1460" version="1.0" viewBox="0 0 1280 1095">
  <path d="m972.6 2.8-1.5 2.9 7 5.8c9.6 8 17.4 17.3 28.2 33.5 19 28.6 40.1 57.6 49.8 68.5 3 3.3 9 9 13.4 12.5 26.8 21.8 46.1 37 47.1 37 .5 0 1.8-.6 2.9-1.3 1.7-1.4 1.7-1.7-.4-10.6-6.6-27.1-19.6-59.4-30.8-76.3-15.5-23.4-46.7-47.6-80.2-62.4C1000 8.9 976 0 974.4 0c-.2 0-1 1.3-1.8 2.8zM282.3 12.4c-42.5 15.5-81 42.8-99.6 70.7-10.7 16.1-21.8 43.9-28.6 71.4-4.7 19.3-4.7 18.2-1.4 19.8 2.8 1.4 2.8 1.4 23.3-16 29.9-25.5 35.1-30.3 42.2-39.5 8.5-10.9 27.9-39.1 37.5-54.2 15.8-25.2 18.8-29.2 29.6-40 10-10 10.8-11.1 9.8-13.2-1.3-3-1.7-3-12.8 1z"/>
  <path d="M1101.6 64.5c-1.6 2.4-1.5 2.8 7.5 17.5 14.2 23.5 16.5 30 27.5 78 6.4 28 12.9 51.2 17.3 61.9 1.7 4.1 3.1 7.6 3.1 7.9 0 .4-2-2.6-4.4-6.6-13.5-21.9-25.8-33.8-56.5-55.2-27.3-19-49.5-39-57.1-51.3-3.2-5.2-3.7-5.7-6.4-5.2-1.6.3-3.1.7-3.3.9-.7.6 3.7 20.3 6.1 27.2 5.2 15.4 10.5 24.1 27.2 45 13.7 17.1 21.3 24.4 60.4 57.9 33 28.4 35.5 30.8 47.9 46.2l8.3 10.2 2.5-1.6c1.8-1.2 2.3-2.2 1.9-3.8-1.9-7.5-2.6-28-1.6-46.8 2.1-40.8 2.2-48.4 1.1-61.1-2.6-30.2-10.6-54.2-25.2-76.1-8.4-12.6-26.1-29.6-40.8-39.3-6.8-4.5-12.7-8.2-13.1-8.2-.4 0-1.5 1.1-2.4 2.5zM155.3 80.2C115 107.7 93.9 143 89.1 190.9c-1.5 14.6-1.3 25.1.9 53.1 2.2 26.5 2.6 50 1 59.4-.9 5.4-.8 6 1.3 7.6 1.2 1 2.5 1.6 2.9 1.4.3-.2 4.7-5.7 9.6-12.2 10.5-13.7 20-23.1 52.7-52.5 31.1-27.8 40.8-37.9 54.7-56.4 15.5-20.6 22.4-35 26.2-54.3 3-15.9 3.1-14.7-.6-15.5-2-.5-3.4-.3-3.6.3-.2.6-2.5 4.2-5.3 8.1-10.6 15.2-25.8 29.1-57.3 52.5-26.2 19.5-40.4 34.2-51.3 53.2-2 3.5-3.8 6.2-4 6.1-.1-.2 1.1-3.7 2.7-7.8 4.1-10.6 10.1-34.5 16.5-66 3-15.1 6.7-31.7 8.1-36.9 2.9-11 9.2-24.8 18.8-40.9l6.8-11.4-2.4-2.4-2.4-2.3-9.1 6.2z"/>
  <path d="M1193.7 157.5c-1.8 1.3-1.8 1.7 1.1 9.2 6.5 17.1 8.6 32.4 7.1 52.5-.6 7.3-2.3 33.9-3.8 59l-2.7 45.7 2.6 28.8c1.5 15.8 2.5 29 2.4 29.2-.2.2-.6-1-.9-2.5-4.4-20.4-13.6-44.5-22.7-59.3-5.5-9-16-20-56.4-59.3-10-9.7-20-20-22.3-23.1-3.5-4.6-4.5-5.3-6.7-4.9-3.5.6-3.8 1.9-2.5 10.4 2.5 16.3 10.7 39.9 20 57.3 4.4 8.3 22.5 34.8 51.4 75.3 19.4 27.2 29.4 45.6 39.3 72.7 2 5.5 2.9 6.5 6.1 6.5 1.7 0 2.4-.8 2.9-2.8 5.5-24.2 14.3-55.8 21.9-79.2 11.3-34.8 14.3-49.9 15.2-77.5 1.2-35.4-5.1-64.9-20.6-96-9.1-18.5-25.6-43.6-28.5-43.5-.6 0-1.9.7-2.9 1.5zM67.8 177.7c-20.1 28.3-31.1 54.8-38 91.8-1.7 9.4-1.7 49.3 0 60 3 18.1 6.9 32.6 17.2 63.5 6 17.9 13.4 41.7 16.5 53 3.1 11.3 5.8 21.1 6.1 21.8.2.8 1.6 1.2 3.4 1 2.9-.3 3.3-.8 5.9-8.3 10.1-28.8 18.5-43.9 51.9-94 35.8-53.4 42.6-66.5 50.2-96.3 1.7-6.8 4.2-24.1 3.5-24.9-.1-.2-1.5-.5-3.1-.8-2.6-.5-3.2-.1-6.4 4.7-1.9 2.9-17.9 19.9-35.6 37.8-35.3 35.7-39.7 41.3-48.5 61-4.9 11-10.3 27.5-13.8 42-1.4 5.7-1.9 7-1.6 4 .2-2.5 1.1-16.4 2.1-31l1.7-26.5-3.7-45c-2.1-24.8-4.3-51.3-4.9-59-1.8-21.1-.2-35.3 6.3-53.9 1.1-3.3 1.9-6 1.8-6.1-.6-.5-4.7-2.5-5.1-2.5-.2 0-2.9 3.5-5.9 7.7zM400.6 189.2c-.8 1.3-40 72.5-87.1 158.3l-85.7 156 9.1 8.7c14.2 13.6 36.5 30.7 51.2 39.2l4.6 2.6h218.6l11.4-7.6c6.3-4.1 15.8-11 21.1-15.3 9.7-7.8 31.2-26.9 31.2-27.7 0-.3-.6-1.5-1.4-2.7-3.3-5.2-165.6-301-165.6-301.8 0-.5 44.9-.9 110.5-.9H629v3.8c0 2.1-4.9 65.5-11 140.8-6 75.3-12.5 157.4-14.5 182.4-1.9 25-4 49.5-4.6 54.5-3.1 25.1-13.7 43.2-30 51.2l-6.6 3.3H379.5l-5 2.4c-6.6 3-12 9.1-13.9 15.7-2 6.5-2 6.3 0 12.8 1.8 6.1 6.9 12.3 12.8 15.4l4.1 2.2 263.5.3c292 .2 268.5.8 276.8-6.3 5.4-4.7 8.3-11 8.3-17.8 0-9.2-4.3-16.4-13-21.5l-4.6-2.7-95.5-.5-95.5-.5-6-3c-15.5-7.8-26.2-26.2-29.4-50.5-.6-4.7-3.1-34.8-5.6-67-2.6-32.2-9.2-116-14.8-186.3-5.7-70.3-10.1-128-9.8-128.3.2-.2 49.9-.4 110.4-.4 104.3 0 109.9.1 109.2 1.7-.3 1-38 69.7-83.8 152.7l-83.1 151 8.5 7.9c43.4 40.6 89.9 64.9 137.7 71.8 12.4 1.8 17.5 2.1 32.7 1.6 19.3-.6 29.4-2.1 47.2-6.7 39-10.3 82.1-35.3 113.6-65.9l8.8-8.6-16.3-29.5c-9-16.2-48.3-87.4-87.3-158.3L878.6 187H402l-1.4 2.2zm78.8 162.2c42.7 77.5 77.6 141.1 77.6 141.3 0 .2-70 .3-155.6.3s-155.4-.4-155.2-.8c1-2.5 155.1-282.2 155.3-282 .2.2 35.2 63.7 77.9 141.2zm478.6 1.9 76.8 139.2-155.6.3c-85.5.1-155.7 0-155.9-.2-.2-.2 34.6-64 77.3-141.6 72.9-132.4 77.9-141.1 79.2-139.1.8 1.1 36 64.8 78.2 141.4z"/>
  <path d="M1257 340.2c0 14.2-1.5 30.6-3.9 42.4-1.9 9.4-5.6 19.6-19.3 53.9-9.8 24.4-19.8 51.5-22.7 61.2-1.2 4-3.7 16.4-5.6 27.5-3.4 20.7-5.5 31.2-6 30.6-.1-.2.1-4.6.5-9.8 1.3-17.7-1.1-41.2-6.1-60-5.9-22.1-12.8-36.7-34.6-73-18.6-31.1-20.9-35.4-24.3-44.8-2-5.6-2.5-6.2-5.1-6.2-1.5 0-3 .3-3.2.7-.9 1.5 1.3 29.9 3.3 44.8 5.6 40 12.3 69.1 24.7 107 12.9 39.7 17.8 59.3 20.4 81.2 1.1 9.1.7 28.4-.6 32.8-.5 1.6 0 2.3 2.4 3.1l2.9 1.2 6.8-10.6c8.4-13 20.3-29.4 31.8-43.8 37.2-46.2 55.8-96.4 57.3-154.9.8-30.2-1.7-52.9-8.9-81.8l-3.2-12.7h-6.6v11.2zM11.4 345.4c-1 3.1-4.4 18.1-5.8 25.6-4.7 25.5-6 62.9-3.1 86 6.5 51.9 25.7 95.4 60.6 137 13.2 15.8 33.1 42.5 38.6 51.9.1.2 1.6-.2 3.3-.9 2-.8 2.9-1.8 2.6-2.7-.4-.8-1.1-5.7-1.7-10.8-2.5-21.6 3.1-52.5 19.6-107 8.3-27.8 11.9-43.1 16.4-70.5 4.3-26 6.1-42.9 6.8-62.1l.6-16.6-2.4-.6c-3.7-1-3.7-1-5.2 4-2.4 8.2-6.9 16.9-21.6 42.8-16.8 29.3-23.6 42.5-28.4 55.5-10.5 28.3-14.7 61.5-11.2 89.5 1.2 9.6-1.7-2.3-6.5-26.2-5.4-27.5-8.9-38-24-73.8-23.7-56.1-24.9-59.2-27.4-71.2-2.7-12.8-4.6-30.4-4.6-42.4v-7.7l-3.1-.4c-1.7-.3-3.2 0-3.5.6z"/>
  <path d="M1129.5 521.5c-9.9 32.4-15.7 74.9-19 140.5-2.2 42.5-4.6 65.3-8.6 81.4-1.1 4.3-5.1 15.7-9 25.3-6.6 16.7-6.9 17.6-5.3 19.4.9 1.1 2.3 1.9 3 1.9 1.8 0 54.1-35.1 69.6-46.7 60.8-45.7 94.1-86 109.8-133 8.2-24.6 11.7-52.7 9.4-75.2-.7-6-.7-6.1-3.8-6.1-2.9 0-3.3.4-5 5.2-3.3 9.5-12.1 28.1-17.8 37.8-9.7 16.4-17.8 26.9-33.3 42.9-14.6 15.1-24.1 26.4-35.6 42.1-8.4 11.5-26.9 38.3-34.5 50-8.5 13.1-14.5 21.2-15.2 20.5-.3-.3.9-2.5 2.7-5 7.3-10.2 13.5-27.4 16.6-46.5 2-12.4 2.3-45 .6-60-.6-5.2-4.3-26.8-8.2-48-3.9-21.2-7.3-41.8-7.7-45.9-.7-7.1-.9-7.5-3.4-8.2-2.8-.7-2.8-.6-5.3 7.6zM142.8 526.7c-1.5.4-1.8 1.6-1.8 7.1 0 3.7-2.7 23.6-5.9 44.2-7.7 48.6-8.4 56.3-7.8 82.2.5 22.4 1.6 31 6.3 46.8 2.7 8.9 9.3 23.1 12.3 26.5 1 1.1 2.6 3.3 3.6 5 3.6 6.2-5.4-4.6-14.2-17.3-34-48.4-47.7-65.6-70.4-88.7-19.5-19.7-23.5-24.5-32.8-38.3-6.9-10.2-18.4-31.9-22.6-42.5-2.3-5.6-3.1-6.7-5.1-6.7-3.6 0-4.4 2.9-4.4 15.5 0 30.4 6.1 56.5 19.5 84.1 24.7 50.6 68.5 91.4 157 145.9 8.7 5.4 16.7 10 17.7 10.3 1 .2 2.7-.3 3.7-1.2 1.8-1.7 1.6-2.3-5.6-18.9-4.1-9.5-8.3-20.4-9.3-24.2-4.6-16.6-7.9-41.8-11-84.5-4.6-61-10.4-98.7-20.5-133.3-3.9-13.1-4-13.2-8.7-12z"/>
  <path d="M1081.7 656.1c-9.4 9.5-17.8 22.3-27.7 42.4-6.9 13.9-10.3 23.1-26.4 71.2-10.2 30.4-20.6 60.1-23.1 66-10.2 23.6-25.1 49.6-33.6 58.5-4.2 4.5-4.6 5.5-2.6 8.1 1.1 1.6 2.1 1.4 13.7-1.8 21.1-6 38.6-10.2 60-14.5 54.5-10.9 96.7-33.3 133.5-71.1 26.8-27.5 45.5-58.6 59.1-98.1l2.3-6.8-2.2-1.5c-1.2-.8-2.4-1.5-2.8-1.5-.4 0-7 7.3-14.7 16.2-23.3 27.2-36 38.4-54.7 48.4-43.4 23.1-115.6 68.9-133 84.3-1.6 1.4-.5-.3 2.5-3.7 27-31.4 41.5-64.7 46.5-106.9 5.5-46.5 8.2-63.5 13-82.3l2.4-9.5-2.4-2.4-2.4-2.4-7.4 7.4zM190.6 662.9c-1.7 1.9-1.7 2.5 1.2 13.8 5.2 20 10.5 49.3 13.2 72.3 5.3 45.9 23.1 85.7 50.6 113.5 3.2 3.3 4.9 5.3 3.8 4.5-1.2-.8-6.7-4.8-12.2-8.7-26.2-18.9-70-45-117.2-69.8-31.2-16.4-38.5-22.5-74.6-63.3-2.8-3.2-3.2-3.4-5.5-2.2-1.3.7-2.5 1.4-2.6 1.5-.6.4 5.1 15.6 9.8 26.4 23.5 52.9 61.4 93.7 111.2 119.6 25.7 13.4 47.6 20.6 77.2 25.6 19.9 3.3 38.1 7.2 58.4 12.4 7.4 1.9 14 3.5 14.6 3.5.7 0 1.7-1.1 2.3-2.4.9-2.1.7-2.7-2-5.2-4.6-4.4-14-17.3-20.5-28.2-12.2-20.8-20.7-40.5-37.3-86.7-8.8-24.8-17.9-50-20.1-56-5-13.6-14.9-32.8-23.7-46-6.3-9.5-21.6-26.5-23.8-26.5-.6 0-1.9.9-2.8 1.9z"/>
  <path d="M996.5 787.2c-11.3 5.9-25.7 19.8-55.3 53.3-23.8 26.9-50.7 53.8-62.4 62.5-16.2 12.1-48.7 28.3-65.5 32.6-7 1.8-7.3 1.9-7.3 4.9v3l44.3 8.8c24.3 4.8 53.9 11 65.7 13.8 21.1 5 21.8 5.1 41 5.6 14.9.4 22.3.1 31.3-1.1 38.7-5.4 76.4-21.4 104.7-44.3 15-12.2 32.4-31.4 42-46.3l3.3-5.1-2.1-2.2-2.1-2.1-5.8 4.6c-24.9 19.5-57.4 32.5-93.3 37.3-6.3.8-22.3 1.9-35.5 2.5-28.1 1.1-54.9 4.4-90.9 11.1-5.9 1.1-11 1.8-11.2 1.6-.2-.2 3.5-1.8 8.4-3.7 18.6-7 28.4-13.3 40.3-25.7 15.4-16.1 29.4-40.4 46.5-80.7 5.2-12.2 10.3-23.3 11.4-24.8 1.6-2.1 1.8-3.2 1-5.3-1.2-3-3.2-3.1-8.5-.3zM280.5 797.1c-.5 2.3-.2 3.6 1.3 5.2 1.1 1.2 5.9 10.9 10.6 21.4 18.2 40.9 30.7 62.3 46.6 79.6 11.7 12.8 23.1 20 42.1 26.8 10.9 3.9 15.1 5.8 9.9 4.6-4.2-1-37.1-5.7-55.3-7.8-10.6-1.3-28.8-2.4-47.2-2.9-31.1-.9-40.1-1.7-57-5.1-24-4.9-50.7-16.2-69-29.4l-9-6.4-2.2 2.1c-2.7 2.5-2.7 2.4 6.5 14.6 33.1 43.6 83.4 71.7 141.9 79.3 11.3 1.4 39 1.4 47.9-.2 3.8-.6 18.2-4 31.9-7.4 21-5.4 100.6-23.5 102.9-23.5.4 0 .6-1.4.4-3.2-.3-3-.5-3.2-8.8-5.3-12.1-3.1-20.2-6.4-39.4-16.1-18.2-9.1-22.1-11.6-33.6-20.8-8.2-6.6-37.5-35.6-70.8-70.4-20.7-21.5-33.3-32.5-41.7-36.3-5.7-2.6-7.2-2.4-8 1.2z"/>
  <path d="M702 940.1c-12.4 1.3-30.6 5-45.7 9.3l-12.1 3.5-6.9-2c-9.1-2.6-26.7-6.4-37.8-8.1-13.5-2-48.3-1.7-62 .6-19.1 3.1-25.1 5.1-68.1 23.2-89.9 37.7-91.4 38.2-123.3 40.6-30.2 2.2-59.2-2.5-78-12.8-6-3.3-6.4-3.4-8.2-1.8-2.3 2-2.4 3.3-.5 4.8.7.6 5.6 4.5 10.7 8.7 40.8 33.2 85.2 48.3 131.6 44.8 15.2-1.1 24.6-3 37.8-7.4 23.9-7.9 50.9-23.8 77.2-45.4 22.1-18 25.3-20.4 34.3-25 10.3-5.3 19.2-8.4 28.4-10 9.9-1.8 37.7-1.2 37.6.8-.1.3-3.5 2.2-7.8 4.1-25.2 11.5-61 35.9-90.2 61.6-12.5 11-40.3 39.2-39.8 40.3.2.5 6.2 6.2 13.4 12.9l13.2 12.1 8-9.3c22-25.5 56-59.3 79.2-78.6 15.6-13.1 33.5-25.7 46.1-32.7l5.6-3.1 9 4.7c11.2 6 29.4 18.3 43.8 29.7 23.3 18.5 56.7 49.9 77.7 73.1 6.2 6.8 11.5 12.2 11.9 12.1.3-.2 6.4-5.8 13.4-12.5l12.7-12.2-6.1-6.9c-6.9-7.8-28.2-27.3-41.1-37.8-27.4-22.2-59.4-42.6-85-54-4.7-2.1-8.7-3.9-8.9-4.1-1.1-.8 1.3-1.3 11.8-2.4 29.8-3.3 55.9 5.7 82.1 28.1 14.1 12.1 40.1 29.1 58.7 38.4 23.6 11.8 41.4 16.4 66.8 17.3 48 1.8 89.5-14.2 131.8-50.6 4.8-4.1 8.7-7.8 8.7-8.2 0-.4-.8-1.7-1.9-3l-1.8-2.2-3.1 2.2c-17.3 12.3-54 19-89 16.2-27-2.1-25.9-1.8-122.7-39.6-35.5-13.8-40.9-15.6-57-18.1-11.5-1.8-42.2-2.6-54.5-1.3z"/>
</svg>